<?xml version="1.0" standalone="no"?>
<!DOCTYPE svg PUBLIC "-//W3C//DTD SVG 20010904//EN"
 "http://www.w3.org/TR/2001/REC-SVG-20010904/DTD/svg10.dtd">
<svg version="1.0" xmlns="http://www.w3.org/2000/svg"
 width="300.000000pt" height="300.000000pt" viewBox="0 0 300.000000 300.000000"
 preserveAspectRatio="xMidYMid meet">
<metadata>
Created by potrace 1.14, written by Peter Selinger 2001-2017
</metadata>
<g transform="translate(0.000000,300.000000) scale(0.100000,-0.100000)"
fill="#000000" stroke="none">
<path d="M322 2799 c-48 -14 -109 -80 -123 -131 -23 -89 12 -182 88 -229 57
-36 154 -34 210 3 22 15 51 44 64 65 12 21 24 40 25 42 2 2 29 -18 60 -44 44
-38 58 -45 65 -34 5 8 9 22 9 32 0 9 3 17 8 17 4 0 134 -28 289 -62 l283 -63
0 -38 c0 -44 22 -103 50 -132 l20 -21 -70 -34 c-39 -19 -70 -35 -70 -37 0 -2
12 -14 26 -27 l27 -22 -218 -297 c-168 -229 -222 -296 -234 -291 -121 53 -252
-2 -286 -121 -48 -164 113 -306 268 -237 l47 21 21 -74 22 -74 29 22 28 21 44
-49 c24 -28 129 -144 234 -260 l189 -210 -18 -26 c-33 -47 -45 -113 -30 -166
26 -99 92 -148 198 -148 52 0 68 5 104 30 117 83 117 247 0 330 -36 25 -52 30
-104 30 -40 0 -74 -6 -96 -17 -19 -10 -35 -18 -37 -18 -6 0 -464 510 -464 517
0 4 10 17 21 30 l22 22 -24 10 c-69 26 -114 45 -118 47 -2 2 7 17 19 33 11 17
24 46 27 64 l5 34 361 6 c198 4 420 7 494 7 l133 0 0 -35 c0 -19 2 -35 5 -35
3 0 34 15 68 32 34 18 65 34 70 36 4 2 7 -7 7 -20 0 -35 41 -100 79 -125 139
-94 314 -2 314 164 0 138 -148 233 -277 179 l-34 -14 -12 74 c-12 77 -20 86
-52 57 -11 -10 -22 -13 -27 -7 -5 5 -104 137 -220 292 l-213 284 26 37 c29 41
46 91 46 131 0 25 4 26 278 88 153 34 283 62 290 62 7 0 12 -8 12 -17 0 -10 4
-24 9 -32 7 -11 21 -4 65 34 31 26 58 46 59 44 2 -2 15 -23 29 -45 41 -63 89
-89 169 -89 54 0 72 5 106 27 63 41 88 90 88 169 0 54 -5 72 -27 106 -41 62
-90 88 -168 88 -51 0 -73 -5 -103 -24 -52 -32 -86 -87 -94 -149 -3 -29 -9 -52
-12 -52 -3 0 -31 7 -61 15 -80 21 -83 21 -76 -18 l6 -33 -287 -65 -288 -65
-14 25 c-37 70 -114 120 -184 121 -72 0 -152 -50 -177 -111 -7 -16 -20 -29
-28 -29 -9 0 -139 28 -289 62 l-273 62 6 33 c7 38 9 37 -71 18 -33 -8 -63 -14
-66 -15 -3 0 -9 23 -12 51 -12 99 -81 167 -178 174 -30 3 -69 0 -87 -6z m148
-31 c132 -67 132 -249 0 -315 -24 -13 -60 -23 -80 -23 -20 0 -56 10 -80 23
-132 66 -132 248 0 315 24 12 60 22 80 22 20 0 56 -10 80 -22z m2220 0 c132
-67 132 -249 0 -315 -24 -13 -60 -23 -80 -23 -20 0 -56 10 -80 23 -132 66
-132 248 0 315 24 12 60 22 80 22 20 0 56 -10 80 -22z m-1112 -249 c131 -64
131 -254 0 -318 -54 -26 -100 -26 -153 -2 -70 32 -105 86 -105 161 0 75 35
129 105 161 53 24 99 24 153 -2z m-84 -359 c20 0 54 7 76 16 23 9 42 15 44 13
2 -2 101 -134 220 -293 l216 -290 -27 -22 c-16 -12 -26 -24 -23 -27 3 -3 34
-19 68 -36 62 -31 63 -33 48 -54 -22 -30 -46 -83 -46 -102 0 -21 -13 -19 -80
15 -33 17 -62 30 -65 30 -3 0 -5 -16 -5 -35 l0 -35 -133 0 c-74 0 -296 -3
-495 -7 l-362 -6 0 22 c0 26 -25 78 -51 106 -18 20 -14 25 199 317 119 164
221 298 226 298 5 0 18 -8 28 -17 25 -22 34 -9 43 66 4 31 9 59 11 63 3 4 20
0 39 -8 19 -8 50 -14 69 -14z m856 -670 c45 -23 74 -60 89 -115 34 -128 -90
-250 -218 -215 -197 53 -161 349 42 350 28 0 64 -8 87 -20z m-1545 -9 c72 -33
105 -86 105 -167 0 -131 -136 -212 -257 -153 -135 65 -129 257 12 320 51 23
89 23 140 0z m845 -933 c132 -67 132 -249 0 -316 -56 -28 -104 -28 -160 0
-132 67 -132 249 0 316 24 12 60 22 80 22 20 0 56 -10 80 -22z"/>
<path d="M367 2653 c-12 -12 -7 -22 8 -17 8 4 15 1 15 -5 0 -6 -4 -11 -10 -11
-5 0 -10 -4 -10 -10 0 -5 7 -10 16 -10 9 0 14 -6 11 -12 -2 -7 -11 -12 -20
-10 -19 3 -32 -14 -14 -21 6 -2 22 -1 35 4 19 7 22 14 18 46 -3 21 -5 41 -5
46 -1 9 -35 9 -44 0z"/>
<path d="M2586 2644 c-10 -25 -7 -31 15 -37 24 -6 20 -33 -4 -29 -21 3 -32
-17 -13 -24 21 -8 56 14 56 36 0 10 -7 26 -16 34 -14 15 -14 16 0 16 9 0 16 5
16 10 0 16 -47 11 -54 -6z"/>
<path d="M1466 2394 c-21 -53 8 -104 47 -83 20 12 23 69 5 87 -17 17 -45 15
-52 -4z m42 -45 c-1 -13 -7 -23 -13 -22 -13 3 -18 30 -11 50 10 24 29 1 24
-28z"/>
<path d="M1466 1501 c-4 -5 3 -7 14 -4 22 6 26 -7 8 -25 -9 -9 -9 -12 0 -12
22 0 13 -38 -10 -43 -22 -4 -22 -4 -2 -6 31 -2 44 20 37 62 -4 27 -11 37 -24
37 -10 0 -20 -4 -23 -9z"/>
<path d="M2245 1370 c-3 -5 -1 -10 4 -10 15 0 14 -53 -1 -68 -9 -9 -7 -12 13
-12 23 0 24 3 21 50 -3 33 -8 50 -17 50 -8 0 -17 -4 -20 -10z"/>
<path d="M712 1358 c-17 -17 -15 -33 2 -19 25 21 30 -8 7 -40 -28 -37 -27 -41
11 -37 33 3 53 28 23 28 -14 0 -15 3 -5 14 27 34 -7 85 -38 54z"/>
<path d="M1553 407 c-28 -41 -28 -47 -4 -47 11 0 21 -6 23 -12 3 -9 9 -8 21 4
11 10 13 19 7 23 -5 3 -10 19 -10 36 0 38 -10 37 -37 -4z"/>
<path d="M1040 2665 c-1 -5 -1 -20 0 -32 1 -16 -4 -23 -16 -23 -14 0 -15 2 -3
18 13 15 12 16 -3 3 -24 -18 -23 -41 2 -41 11 0 20 -5 20 -12 0 -6 6 -3 14 8
8 10 11 21 6 24 -4 3 -10 19 -13 35 -2 17 -5 26 -7 20z"/>
<path d="M1936 2653 c-6 -15 8 -32 27 -33 15 0 6 -39 -10 -43 -14 -3 -13 -4 2
-3 26 1 34 53 11 62 -21 8 -20 21 2 27 13 4 12 5 -4 6 -12 0 -25 -7 -28 -16z"/>
<path d="M1946 1973 c-6 -14 -5 -16 5 -5 34 33 45 -9 13 -48 l-26 -30 31 0
c16 0 32 4 35 9 3 4 -7 6 -22 3 l-27 -5 23 26 c13 14 22 33 20 44 -4 25 -43
29 -52 6z"/>
<path d="M1010 1930 c0 -33 4 -50 13 -50 8 0 11 15 9 50 -5 65 -22 65 -22 0z"/>
<path d="M1233 1014 c19 -6 24 -34 5 -34 -6 0 -4 -6 7 -13 22 -17 12 -37 -17
-37 -12 0 -19 -3 -15 -6 3 -4 18 -4 31 0 24 6 26 10 22 49 -3 36 -7 42 -27 44
-15 1 -17 0 -6 -3z"/>
</g>
</svg>
